# xmcd
#
# Track frame offsets: 
#        182
#        19215
#        40865
#        58772
#        78242
#        101970
#        118627
#        140142
#        159360
#        166577
#        185507
#        207645
#
# Disc length: 3022 seconds
#
# Revision: 2
# Processed by: cddbd v1.5.2PL0 Copyright (c) Steve Scherf et al.
# Submitted via: ExactAudioCopy v1.0b3
#
DISCID=a50bcc0c
DTITLE=Mista - Mista
DYEAR=1996
DGENRE=Soul
TTITLE0=Blacberry Molasses
TTITLE1=Fresh Groove
TTITLE2=Things You Do
TTITLE3=If My Baby
TTITLE4=I Think That I Should Be
TTITLE5=Lady
TTITLE6=What Love IS
TTITLE7=Tears, Scars and Lies
TTITLE8=Everything Must Change(Interlude)
TTITLE9=What About Us
TTITLE10=Crossroads
TTITLE11=I'll Sweat You (Bonus Track)
EXTD=
EXTT0=
EXTT1=
EXTT2=
EXTT3=
EXTT4=
EXTT5=
EXTT6=
EXTT7=
EXTT8=
EXTT9=
EXTT10=
EXTT11=
PLAYORDER=
